<?xml version="1.0" encoding="utf-8"?>
<!-- Generator: Adobe Illustrator 16.0.0, SVG Export Plug-In . SVG Version: 6.00 Build 0)  -->
<!DOCTYPE svg PUBLIC "-//W3C//DTD SVG 1.1//EN" "http://www.w3.org/Graphics/SVG/1.1/DTD/svg11.dtd">
<svg version="1.1" id="Capa_1" xmlns="http://www.w3.org/2000/svg" xmlns:xlink="http://www.w3.org/1999/xlink" x="0px" y="0px"
	 width="595.28px" height="841.89px" viewBox="0 0 595.28 841.89" enable-background="new 0 0 595.28 841.89" xml:space="preserve">
<g>
	<path d="M151.985,275.875c-79.981,79.98-79.981,209.651,0,289.632c79.978,79.978,209.651,79.98,289.632,0
		c79.978-79.979,79.978-209.655,0-289.632C361.636,195.894,231.962,195.897,151.985,275.875L151.985,275.875z M414.462,538.352
		c-64.984,64.985-170.344,64.985-235.326,0.004c-64.985-64.985-64.985-170.345,0-235.33c64.982-64.982,170.341-64.982,235.326,0.003
		C479.444,368.011,479.444,473.371,414.462,538.352L414.462,538.352z M188.188,384.484c-9.999,9.999-9.997,26.21,0,36.207
		c9.996,9.996,26.208,9.999,36.207,0l46.807-46.807l-0.003,155.417c0.003,14.14,11.463,25.6,25.602,25.603
		c7.069-0.003,13.468-2.868,18.101-7.5c4.632-4.632,7.496-11.032,7.499-18.101V373.884l46.807,46.807
		c9.996,9.996,26.208,9.999,36.206,0c9.997-9.996,9.994-26.207-0.002-36.203L296.798,275.875L188.188,384.484z M188.188,384.484"/>
</g>
</svg>
